<?xml version="1.0" encoding="utf-8"?>
<!-- Generator: Adobe Illustrator 16.0.0, SVG Export Plug-In . SVG Version: 6.00 Build 0)  -->
<!DOCTYPE svg PUBLIC "-//W3C//DTD SVG 1.1//EN" "http://www.w3.org/Graphics/SVG/1.1/DTD/svg11.dtd">
<svg version="1.1" id="Layer_1" xmlns="http://www.w3.org/2000/svg" xmlns:xlink="http://www.w3.org/1999/xlink" x="0px" y="0px"
	 width="375px" height="64px" viewBox="-101 0 375 64" enable-background="new -101 0 375 64" xml:space="preserve">
<g>
	<polygon fill="#FFFFFF" points="-43.462,20.199 -33.972,20.199 -33.972,50.079 -25.241,50.079 -25.241,20.199 -15.922,20.199 
		-15.922,12.776 -43.462,12.776 	"/>
	<path fill="#FFFFFF" d="M-4.253,45.09c-0.431-0.213-0.69-0.541-0.786-0.984c-0.094-0.439-0.141-1.156-0.141-2.148v-8.605h4.684
		v-5.014H-5.18V22.05h-5.991l-0.03,6.287h-3.807v5.015h3.525v9.564c0,1.509,0.102,2.768,0.303,3.766
		c0.205,0.998,0.693,1.822,1.466,2.473c1.126,0.904,3.002,1.356,5.626,1.356c0.275,0,1.43-0.116,3.458-0.349l0.466-0.131v-4.75
		l-1.953,0.132C-3.111,45.413-3.822,45.307-4.253,45.09z"/>
	<rect x="4.588" y="28.403" fill="#FFFFFF" width="6.238" height="21.695"/>
	<rect x="4.588" y="20.411" fill="#FFFFFF" width="6.238" height="6.023"/>
	<path fill="#FFFFFF" d="M39.428,28.007c-1.424,0-2.697,0.312-3.822,0.935c-1.125,0.624-1.948,1.553-2.467,2.787
		c-1.246-2.481-3.236-3.722-5.973-3.722c-2.912,0-4.921,1.241-6.023,3.722h-0.082v-3.326h-5.957v21.695h6.238V38.646
		c0-1.732,0.182-3.104,0.545-4.113c0.364-1.008,1.242-1.512,2.631-1.512c1.159,0,1.924,0.367,2.293,1.106
		c0.369,0.738,0.553,1.749,0.553,3.028v1.488v11.451h6.238V38.646c0-1.942,0.16-3.254,0.479-3.938
		c0.521-1.082,1.424-1.621,2.715-1.621c1.524,0,2.425,0.562,2.713,1.687c0.046,0.541,0.067,1.832,0.067,3.873v11.451h6.305V36.544
		v-2.101c0-1.907-0.387-3.332-1.158-4.27C43.466,28.729,41.697,28.007,39.428,28.007z"/>
	<polygon fill="#FFFFFF" points="56.456,45.413 66.086,32.408 66.086,28.403 50.219,28.403 50.219,32.74 59.038,32.74 
		49.475,45.413 49.475,50.098 66.551,50.098 66.551,45.413 	"/>
</g>
<g>
	<path fill="#FFFFFF" d="M-60.141,19.561c1.11-0.473,1.92-1.094,2.745-1.117c2.259-0.059,3.761-1.064,4.935-2.933
		c0.451-0.711,1.367-1.13,2.245-1.817C-56.872,2.449-71.604-2.718-83.199,2.691C-72.154,4.158-65.448,11.424-60.141,19.561z"/>
	<path fill="#FFFFFF" d="M-89.824,6.532c-10.144,6.897-13.309,26.458-6.12,34.377c0.962-0.445,1.751-1.097,2.568-1.136
		c2.372-0.115,4.012-1.123,5.199-3.17c0.373-0.646,1.282-0.979,2.11-1.578C-90.77,26.333-93.915,16.981-89.824,6.532z"/>
	<path fill="#FFFFFF" d="M-69.168,25.565c2.078-0.17,3.513-1.059,4.647-2.78c0.505-0.766,1.435-1.254,2.249-1.931
		C-67.197,11.798-76.6,3.286-85.7,4.226c4.586,7.725,9.137,15.39,13.429,22.616C-71.073,26.33-70.145,25.645-69.168,25.565z"/>
	<path fill="#FFFFFF" d="M-73.911,27.808c-4.328-7.289-8.881-14.952-13.628-22.941c-5.131,10.842-1.25,20.098,3.418,28.886
		c1.166-0.43,2.078-0.983,3.035-1.083c2.039-0.214,3.509-1.057,4.635-2.809C-75.927,29.048-74.887,28.569-73.911,27.808z"/>
	<path fill="#FFFFFF" d="M-51.014,58.121c-1.704-0.459-2.8-1.085-3.571-2.432c-2.844-4.97-5.815-9.865-8.747-14.784
		c-2.179-3.655-4.372-7.306-6.631-11.078c-0.862,0.557-1.583,1.022-2.391,1.543c4.924,8.292,9.781,16.474,14.682,24.72l-0.008-0.003
		c0,0,0.661,1.396-0.856,1.665c-0.083,0.018-0.143,0.033-0.197,0.053c-5.89,1.055-11.595,2.074-17.394,3.113
		c10.807,0,25.069,0,35.983,0C-45.661,59.59-47.232,59.229-51.014,58.121z"/>
	<path fill="#FFFFFF" d="M-85.904,2.286c-0.664-1.411-1.557-2.163-2.872-1.425c-1.343,0.759-1.071,1.918-0.191,3.242
		C-87.949,3.498-86.937,2.897-85.904,2.286z"/>
</g>
<rect x="78.333" y="28.5" fill="#FFFFFF" width="1" height="22"/>
<g>
	<path fill="#FFFFFF" d="M93.926,38.763l2.191-4.325h2.4l-3.485,6.416v4.088h-2.213v-4.017l-3.484-6.487h2.414L93.926,38.763z"/>
	<path fill="#FFFFFF" d="M106.967,40.911c0,1.308-0.345,2.33-1.034,3.067c-0.69,0.738-1.65,1.106-2.882,1.106
		c-0.771,0-1.451-0.169-2.04-0.507c-0.589-0.337-1.042-0.822-1.358-1.454c-0.315-0.633-0.474-1.37-0.474-2.213
		c0-1.313,0.342-2.333,1.027-3.062c0.685-0.728,1.647-1.092,2.889-1.092c0.771,0,1.451,0.168,2.04,0.503
		c0.589,0.336,1.042,0.816,1.358,1.444C106.809,39.333,106.967,40.067,106.967,40.911z M101.413,40.911
		c0,0.795,0.131,1.396,0.392,1.803s0.687,0.611,1.275,0.611c0.584,0,1.005-0.203,1.261-0.607s0.385-1.007,0.385-1.807
		c0-0.796-0.13-1.392-0.389-1.789s-0.683-0.597-1.271-0.597c-0.584,0-1.006,0.197-1.265,0.593S101.413,40.111,101.413,40.911z"/>
	<path fill="#FFFFFF" d="M114.467,44.941l-0.295-1.027h-0.114c-0.235,0.373-0.568,0.662-0.999,0.865
		c-0.431,0.204-0.922,0.306-1.473,0.306c-0.944,0-1.655-0.253-2.134-0.758c-0.479-0.505-0.719-1.232-0.719-2.181v-5.237h2.191v4.691
		c0,0.579,0.103,1.015,0.309,1.304c0.206,0.29,0.534,0.435,0.984,0.435c0.613,0,1.057-0.204,1.329-0.614
		c0.273-0.409,0.41-1.088,0.41-2.036v-3.779h2.191v8.032H114.467z"/>
	<path fill="#FFFFFF" d="M122.931,36.758c0.297,0,0.544,0.021,0.74,0.064l-0.165,2.056c-0.178-0.048-0.394-0.072-0.647-0.072
		c-0.699,0-1.244,0.18-1.634,0.539c-0.391,0.359-0.586,0.862-0.586,1.509v4.088h-2.191v-8.032h1.66l0.323,1.351h0.107
		c0.249-0.45,0.586-0.813,1.01-1.089S122.433,36.758,122.931,36.758z"/>
	<path fill="#FFFFFF" d="M138.442,44.941h-2.831l-4.569-7.946h-0.064c0.091,1.403,0.137,2.404,0.137,3.003v4.943h-1.99V34.438h2.809
		l4.563,7.867h0.051c-0.072-1.365-0.108-2.33-0.108-2.896v-4.972h2.005V44.941z"/>
	<path fill="#FFFFFF" d="M144.55,45.085c-1.293,0-2.304-0.356-3.032-1.07c-0.728-0.714-1.092-1.725-1.092-3.032
		c0-1.346,0.336-2.387,1.01-3.122c0.673-0.734,1.603-1.103,2.791-1.103c1.135,0,2.019,0.323,2.651,0.97
		c0.632,0.647,0.948,1.54,0.948,2.681v1.063h-5.181c0.024,0.623,0.209,1.109,0.554,1.459s0.828,0.524,1.451,0.524
		c0.483,0,0.941-0.05,1.372-0.15c0.432-0.101,0.882-0.262,1.351-0.481v1.695c-0.383,0.191-0.793,0.334-1.229,0.428
		C145.709,45.038,145.177,45.085,144.55,45.085z M144.241,38.317c-0.465,0-0.829,0.146-1.093,0.441s-0.414,0.713-0.452,1.254h3.075
		c-0.01-0.541-0.151-0.959-0.424-1.254C145.074,38.464,144.705,38.317,144.241,38.317z"/>
	<path fill="#FFFFFF" d="M156.21,44.941l-0.617-2.81l-0.834-3.549h-0.05l-1.466,6.358h-2.356l-2.285-8.032h2.185l0.927,3.556
		c0.148,0.638,0.299,1.517,0.452,2.638h0.043c0.02-0.364,0.104-0.941,0.252-1.732l0.115-0.61l0.991-3.851h2.414l0.941,3.851
		c0.019,0.105,0.049,0.261,0.09,0.467c0.04,0.206,0.08,0.426,0.118,0.658c0.038,0.231,0.073,0.459,0.104,0.682
		c0.031,0.224,0.049,0.401,0.054,0.536h0.043c0.043-0.346,0.12-0.818,0.23-1.419c0.109-0.602,0.188-1.008,0.236-1.219l0.963-3.556
		h2.148l-2.313,8.032H156.21z"/>
	<path fill="#FFFFFF" d="M170.25,44.941h-2.228v-8.65h-2.852v-1.854h7.932v1.854h-2.853V44.941z"/>
	<path fill="#FFFFFF" d="M179.029,36.758c0.297,0,0.544,0.021,0.74,0.064l-0.165,2.056c-0.178-0.048-0.394-0.072-0.647-0.072
		c-0.699,0-1.244,0.18-1.634,0.539c-0.391,0.359-0.586,0.862-0.586,1.509v4.088h-2.191v-8.032h1.66l0.323,1.351h0.107
		c0.249-0.45,0.586-0.813,1.01-1.089S178.531,36.758,179.029,36.758z"/>
	<path fill="#FFFFFF" d="M186.329,44.941l-0.424-1.092h-0.058c-0.369,0.465-0.749,0.786-1.139,0.966
		c-0.391,0.18-0.899,0.27-1.527,0.27c-0.771,0-1.378-0.22-1.821-0.661c-0.442-0.44-0.664-1.067-0.664-1.882
		c0-0.853,0.298-1.481,0.895-1.887c0.596-0.404,1.495-0.628,2.697-0.671l1.395-0.044v-0.352c0-0.814-0.417-1.222-1.251-1.222
		c-0.642,0-1.396,0.194-2.263,0.582l-0.726-1.479c0.924-0.484,1.949-0.727,3.075-0.727c1.077,0,1.903,0.235,2.479,0.704
		c0.575,0.47,0.862,1.184,0.862,2.142v5.353H186.329z M185.683,41.22l-0.849,0.028c-0.637,0.02-1.11,0.135-1.422,0.346
		c-0.312,0.21-0.467,0.531-0.467,0.962c0,0.618,0.354,0.927,1.063,0.927c0.508,0,0.914-0.146,1.218-0.438
		c0.305-0.292,0.457-0.681,0.457-1.164V41.22z"/>
	<path fill="#FFFFFF" d="M192.026,44.941l-3.061-8.032h2.292l1.552,4.576c0.173,0.58,0.28,1.128,0.323,1.646h0.043
		c0.024-0.46,0.132-1.008,0.323-1.646l1.545-4.576h2.292l-3.061,8.032H192.026z"/>
	<path fill="#FFFFFF" d="M202.121,45.085c-1.293,0-2.304-0.356-3.032-1.07c-0.728-0.714-1.092-1.725-1.092-3.032
		c0-1.346,0.336-2.387,1.01-3.122c0.673-0.734,1.603-1.103,2.791-1.103c1.135,0,2.019,0.323,2.651,0.97
		c0.632,0.647,0.948,1.54,0.948,2.681v1.063h-5.181c0.024,0.623,0.209,1.109,0.554,1.459s0.828,0.524,1.451,0.524
		c0.483,0,0.941-0.05,1.372-0.15c0.432-0.101,0.882-0.262,1.351-0.481v1.695c-0.383,0.191-0.793,0.334-1.229,0.428
		C203.28,45.038,202.748,45.085,202.121,45.085z M201.813,38.317c-0.465,0-0.829,0.146-1.093,0.441s-0.414,0.713-0.452,1.254h3.075
		c-0.01-0.541-0.151-0.959-0.424-1.254C202.646,38.464,202.276,38.317,201.813,38.317z"/>
	<path fill="#FFFFFF" d="M209.371,44.941h-2.191v-11.18h2.191V44.941z"/>
	<path fill="#FFFFFF" d="M222.922,37.714c0,1.13-0.354,1.995-1.061,2.594c-0.706,0.599-1.711,0.897-3.014,0.897h-0.956v3.736h-2.227
		V34.438h3.355c1.273,0,2.242,0.274,2.906,0.822C222.59,35.809,222.922,36.626,222.922,37.714z M217.892,39.381h0.733
		c0.685,0,1.197-0.136,1.537-0.406c0.341-0.271,0.511-0.665,0.511-1.182c0-0.522-0.143-0.908-0.428-1.157s-0.731-0.374-1.34-0.374
		h-1.014V39.381z"/>
	<path fill="#FFFFFF" d="M229.833,44.941l-0.424-1.092h-0.058c-0.369,0.465-0.749,0.786-1.139,0.966
		c-0.391,0.18-0.899,0.27-1.527,0.27c-0.771,0-1.378-0.22-1.821-0.661c-0.442-0.44-0.664-1.067-0.664-1.882
		c0-0.853,0.298-1.481,0.895-1.887c0.596-0.404,1.495-0.628,2.697-0.671l1.395-0.044v-0.352c0-0.814-0.417-1.222-1.251-1.222
		c-0.642,0-1.396,0.194-2.263,0.582l-0.726-1.479c0.924-0.484,1.949-0.727,3.075-0.727c1.077,0,1.903,0.235,2.479,0.704
		c0.575,0.47,0.862,1.184,0.862,2.142v5.353H229.833z M229.187,41.22l-0.849,0.028c-0.637,0.02-1.11,0.135-1.422,0.346
		c-0.312,0.21-0.467,0.531-0.467,0.962c0,0.618,0.354,0.927,1.063,0.927c0.508,0,0.914-0.146,1.218-0.438
		c0.305-0.292,0.457-0.681,0.457-1.164V41.22z"/>
	<path fill="#FFFFFF" d="M238.103,36.758c0.297,0,0.544,0.021,0.74,0.064l-0.165,2.056c-0.178-0.048-0.394-0.072-0.647-0.072
		c-0.699,0-1.244,0.18-1.634,0.539c-0.391,0.359-0.586,0.862-0.586,1.509v4.088h-2.191v-8.032h1.66l0.323,1.351h0.107
		c0.249-0.45,0.586-0.813,1.01-1.089S237.604,36.758,238.103,36.758z"/>
	<path fill="#FFFFFF" d="M243.685,43.339c0.384,0,0.844-0.083,1.38-0.251v1.631c-0.546,0.244-1.217,0.366-2.012,0.366
		c-0.877,0-1.515-0.222-1.915-0.664c-0.399-0.443-0.6-1.108-0.6-1.994v-3.873h-1.049v-0.927l1.207-0.732l0.632-1.695h1.401v1.71
		h2.249v1.645h-2.249v3.873c0,0.312,0.087,0.541,0.262,0.689S243.397,43.339,243.685,43.339z"/>
	<path fill="#FFFFFF" d="M254.104,44.941h-2.191V40.25c0-0.58-0.104-1.015-0.31-1.305c-0.205-0.289-0.533-0.435-0.983-0.435
		c-0.613,0-1.057,0.205-1.33,0.614c-0.272,0.41-0.409,1.089-0.409,2.037v3.779h-2.191v-8.032h1.674l0.295,1.027h0.122
		c0.244-0.389,0.581-0.682,1.01-0.881c0.429-0.198,0.916-0.298,1.462-0.298c0.934,0,1.643,0.253,2.127,0.758
		c0.483,0.506,0.726,1.235,0.726,2.188V44.941z"/>
	<path fill="#FFFFFF" d="M259.995,45.085c-1.293,0-2.304-0.356-3.032-1.07c-0.728-0.714-1.092-1.725-1.092-3.032
		c0-1.346,0.336-2.387,1.01-3.122c0.673-0.734,1.603-1.103,2.791-1.103c1.135,0,2.019,0.323,2.651,0.97
		c0.632,0.647,0.948,1.54,0.948,2.681v1.063h-5.181c0.024,0.623,0.209,1.109,0.554,1.459s0.828,0.524,1.451,0.524
		c0.483,0,0.941-0.05,1.372-0.15c0.432-0.101,0.882-0.262,1.351-0.481v1.695c-0.383,0.191-0.793,0.334-1.229,0.428
		C261.154,45.038,260.622,45.085,259.995,45.085z M259.687,38.317c-0.465,0-0.829,0.146-1.093,0.441s-0.414,0.713-0.452,1.254h3.075
		c-0.01-0.541-0.151-0.959-0.424-1.254C260.52,38.464,260.15,38.317,259.687,38.317z"/>
	<path fill="#FFFFFF" d="M269.536,36.758c0.297,0,0.544,0.021,0.74,0.064l-0.165,2.056c-0.178-0.048-0.394-0.072-0.647-0.072
		c-0.699,0-1.244,0.18-1.634,0.539c-0.391,0.359-0.586,0.862-0.586,1.509v4.088h-2.191v-8.032h1.66l0.323,1.351h0.107
		c0.249-0.45,0.586-0.813,1.01-1.089S269.038,36.758,269.536,36.758z"/>
</g>
</svg>
